<?xml version="1.0" encoding="UTF-8"?>
<!DOCTYPE svg PUBLIC "-//W3C//DTD SVG 1.1//EN" "http://www.w3.org/Graphics/SVG/1.1/DTD/svg11.dtd">
<svg xmlns="http://www.w3.org/2000/svg" version="1.1" width="517px" height="482px" style="shape-rendering:geometricPrecision; text-rendering:geometricPrecision; image-rendering:optimizeQuality; fill-rule:evenodd; clip-rule:evenodd" xmlns:xlink="http://www.w3.org/1999/xlink">
<g><path style="opacity:0.557" fill="#171f4f" d="M 162.5,41.5 C 134.498,41.3334 106.498,41.5 78.5,42C 77.4019,42.7697 77.4019,43.603 78.5,44.5C 77.1667,44.5 75.8333,44.5 74.5,44.5C 74.5,43.1667 74.5,41.8333 74.5,40.5C 104.005,40.1686 133.338,40.5019 162.5,41.5 Z"/></g>
<g><path style="opacity:0.557" fill="#16214f" d="M 495.5,44.5 C 496.718,43.8386 498.051,43.1719 499.5,42.5C 468.434,41.1754 437.434,41.1754 406.5,42.5C 437.816,40.5074 469.482,39.8407 501.5,40.5C 501.5,41.8333 501.5,43.1667 501.5,44.5C 499.5,44.5 497.5,44.5 495.5,44.5 Z"/></g>
<g><path style="opacity:1" fill="#101c6f" d="M 495.5,44.5 C 482.881,45.3097 470.547,47.6431 458.5,51.5C 459.211,49.7986 460.545,48.7986 462.5,48.5C 468.502,46.8316 474.502,45.1649 480.5,43.5C 456.5,42.1667 432.5,42.1667 408.5,43.5C 407.758,44.2868 406.925,44.9535 406,45.5C 403.547,49.9903 402.714,54.657 403.5,59.5C 403.288,61.3841 402.288,62.7174 400.5,63.5C 399.548,65.0453 399.215,66.712 399.5,68.5C 396.795,68.3802 396.128,69.3802 397.5,71.5C 396.568,74.6348 394.901,77.3015 392.5,79.5C 392.045,83.606 390.045,86.606 386.5,88.5C 392.601,72.8421 399.268,57.5087 406.5,42.5C 437.434,41.1754 468.434,41.1754 499.5,42.5C 498.051,43.1719 496.718,43.8386 495.5,44.5 Z"/></g>
<g><path style="opacity:1" fill="#021683" d="M 462.5,48.5 C 462.5,47.5 462.5,46.5 462.5,45.5C 445.866,44.4895 429.199,43.8228 412.5,43.5C 412.657,44.8734 412.49,46.2068 412,47.5C 407.225,44.6228 406.058,45.4562 408.5,50C 407.402,53.5628 405.735,56.7294 403.5,59.5C 402.714,54.657 403.547,49.9903 406,45.5C 406.925,44.9535 407.758,44.2868 408.5,43.5C 432.5,42.1667 456.5,42.1667 480.5,43.5C 474.502,45.1649 468.502,46.8316 462.5,48.5 Z"/></g>
<g><path style="opacity:1" fill="#00148e" d="M 178.5,72.5 C 179.136,76.7814 180.636,80.7814 183,84.5C 183.497,86.8098 183.663,89.1432 183.5,91.5C 184.822,91.33 185.989,91.6634 187,92.5C 188.297,96.427 190.13,100.094 192.5,103.5C 191.957,104.864 191.79,106.197 192,107.5C 193,106.167 194,106.167 195,107.5C 196.56,111.42 198.726,114.754 201.5,117.5C 202.906,117.973 203.573,118.973 203.5,120.5C 203.132,123.288 202.632,125.954 202,128.5C 203.044,129.623 203.71,130.956 204,132.5C 207.28,133.551 208.447,135.551 207.5,138.5C 208.689,139.429 210.022,139.762 211.5,139.5C 211.714,141.144 211.38,142.644 210.5,144C 213.723,146.617 215.056,149.783 214.5,153.5C 215.325,154.386 216.325,154.719 217.5,154.5C 216.833,158.5 218.5,160.167 222.5,159.5C 223.167,162.167 223.833,164.833 224.5,167.5C 225.5,167.5 226.5,167.5 227.5,167.5C 227.511,169.547 227.844,171.547 228.5,173.5C 232.16,176.801 233.494,180.801 232.5,185.5C 234.201,187.211 235.534,189.211 236.5,191.5C 237.086,191.291 237.586,190.957 238,190.5C 238.019,193.308 239.019,195.641 241,197.5C 241.839,200.14 241.339,202.473 239.5,204.5C 240.651,205.731 241.817,205.731 243,204.5C 243.698,207.411 245.198,208.077 247.5,206.5C 251.26,211.684 254.26,217.35 256.5,223.5C 256.855,225.89 257.522,228.223 258.5,230.5C 257.828,232.832 257.661,235.166 258,237.5C 259.585,238.376 260.585,239.709 261,241.5C 261.605,239.519 262.605,239.185 264,240.5C 265.832,244.321 267.166,248.321 268,252.5C 270.167,255.667 272.333,258.833 274.5,262C 274.265,262.873 273.931,263.707 273.5,264.5C 274.864,264.378 276.197,264.378 277.5,264.5C 281.671,270.838 285.337,277.504 288.5,284.5C 288.421,285.93 288.754,287.264 289.5,288.5C 287.697,290.205 287.031,292.038 287.5,294C 289.94,297.03 292.274,300.196 294.5,303.5C 297.94,302.079 299.44,299.413 299,295.5C 299.442,293.321 300.442,292.655 302,293.5C 302.667,295.167 302.667,296.833 302,298.5C 300.526,302.438 299.359,306.438 298.5,310.5C 291.954,327.917 284.62,344.917 276.5,361.5C 273.324,364.736 271.324,368.736 270.5,373.5C 268.396,373.201 266.396,373.534 264.5,374.5C 265.391,375.59 266.391,375.59 267.5,374.5C 268.386,375.325 268.719,376.325 268.5,377.5C 266.5,377.5 264.5,377.5 262.5,377.5C 260.659,375.151 259.326,372.485 258.5,369.5C 258.36,367.876 259.027,366.71 260.5,366C 260.074,362.408 258.074,360.908 254.5,361.5C 252.582,356.645 250.915,351.645 249.5,346.5C 248.914,346.291 248.414,345.957 248,345.5C 247.739,342.337 246.906,339.337 245.5,336.5C 245.756,335.311 246.089,334.144 246.5,333C 244.339,331.013 242.006,329.179 239.5,327.5C 238.359,326.575 238.359,325.741 239.5,325C 238.552,324.517 237.552,324.351 236.5,324.5C 236.579,323.07 236.246,321.736 235.5,320.5C 236.167,319.833 236.833,319.167 237.5,318.5C 235.997,317.948 234.331,317.948 232.5,318.5C 232.583,314.665 231.083,311.665 228,309.5C 227.667,307.5 227.333,305.5 227,303.5C 224.977,301.46 223.31,299.127 222,296.5C 221.329,295.748 220.496,295.414 219.5,295.5C 219.5,295.167 219.5,294.833 219.5,294.5C 219.38,292.801 219.046,291.135 218.5,289.5C 215.829,283.228 212.496,277.561 208.5,272.5C 207.317,269.297 205.984,266.13 204.5,263C 205.893,259.594 205.059,256.761 202,254.5C 201.667,252.833 201.333,251.167 201,249.5C 199.836,249.835 198.503,249.835 197,249.5C 195.4,246.666 194.234,243.666 193.5,240.5C 192.302,238.102 190.636,236.102 188.5,234.5C 184.582,227.665 180.915,220.665 177.5,213.5C 176.222,207.095 173.222,201.761 168.5,197.5C 167.227,195.287 166.227,192.954 165.5,190.5C 163.907,185.974 162.907,181.307 162.5,176.5C 160.61,176.703 159.11,176.037 158,174.5C 157.194,171.554 155.861,168.888 154,166.5C 153.257,164.559 153.424,162.726 154.5,161C 153.207,160.51 151.873,160.343 150.5,160.5C 151.091,157.325 150.091,154.991 147.5,153.5C 147.682,151.325 148.349,149.325 149.5,147.5C 148.761,143.818 147.261,143.152 145,145.5C 143.81,141.619 143.143,137.619 143,133.5C 141.211,135.229 139.044,135.896 136.5,135.5C 136.66,133.801 136.494,132.134 136,130.5C 134.982,131.706 134.482,131.373 134.5,129.5C 135.804,128.977 136.471,127.643 136.5,125.5C 136.214,122.733 135.547,120.066 134.5,117.5C 133.719,118.729 133.219,120.062 133,121.5C 132.667,121.167 132.333,120.833 132,120.5C 131.814,116.484 131.814,112.484 132,108.5C 130.986,105.656 129.152,103.656 126.5,102.5C 125.515,100.494 124.182,98.8273 122.5,97.5C 122.66,95.8008 122.494,94.1341 122,92.5C 120.007,89.3394 118.507,86.0061 117.5,82.5C 117.479,78.2857 115.813,74.7857 112.5,72C 112.062,70.0797 111.395,68.2464 110.5,66.5C 109.575,67.6405 108.741,67.6405 108,66.5C 108.015,63.8038 107.182,61.1371 105.5,58.5C 102.12,54.5931 98.1198,51.7597 93.5,50C 94.3081,49.6924 94.9747,49.1924 95.5,48.5C 92.6845,49.1305 90.0178,48.4638 87.5,46.5C 89.0453,45.5481 90.712,45.2148 92.5,45.5C 92.5,44.5 92.5,43.5 92.5,42.5C 114.8,43.4682 137.134,43.8016 159.5,43.5C 159.672,47.9707 160.506,48.3041 162,44.5C 164.671,48.8739 165.171,53.5405 163.5,58.5C 164.689,59.4287 166.022,59.762 167.5,59.5C 168.538,63.1181 169.705,66.7847 171,70.5C 173.612,70.0157 176.112,70.6824 178.5,72.5 Z"/></g>
<g><path style="opacity:1" fill="#00148e" d="M 462.5,48.5 C 460.545,48.7986 459.211,49.7986 458.5,51.5C 457.833,52.8333 456.833,53.8333 455.5,54.5C 454.85,54.8039 454.183,55.1373 453.5,55.5C 452.168,155.333 452.168,254.999 453.5,354.5C 453.328,362.18 456.661,367.513 463.5,370.5C 464.287,372.104 465.62,372.771 467.5,372.5C 467.33,373.822 467.663,374.989 468.5,376C 466.833,376.333 465.167,376.667 463.5,377C 425.168,377.5 386.835,377.667 348.5,377.5C 348.5,376.167 348.5,374.833 348.5,373.5C 360.29,374.394 371.29,372.061 381.5,366.5C 386.244,364.032 388.744,360.032 389,354.5C 390.259,359.171 391.093,359.337 391.5,355C 389.852,273.718 388.852,192.552 388.5,111.5C 388.634,109.708 388.301,108.042 387.5,106.5C 386.994,103.266 385.328,102.599 382.5,104.5C 383.093,99.7279 384.093,95.0612 385.5,90.5C 385.328,89.5084 385.662,88.8417 386.5,88.5C 390.045,86.606 392.045,83.606 392.5,79.5C 394.901,77.3015 396.568,74.6348 397.5,71.5C 396.128,69.3802 396.795,68.3802 399.5,68.5C 399.215,66.712 399.548,65.0453 400.5,63.5C 402.288,62.7174 403.288,61.3841 403.5,59.5C 405.735,56.7294 407.402,53.5628 408.5,50C 406.058,45.4562 407.225,44.6228 412,47.5C 412.49,46.2068 412.657,44.8734 412.5,43.5C 429.199,43.8228 445.866,44.4895 462.5,45.5C 462.5,46.5 462.5,47.5 462.5,48.5 Z"/></g>
<g><path style="opacity:1" fill="#0b187c" d="M 162.5,41.5 C 168.085,51.6688 173.418,62.0021 178.5,72.5C 176.112,70.6824 173.612,70.0157 171,70.5C 169.705,66.7847 168.538,63.1181 167.5,59.5C 166.022,59.762 164.689,59.4287 163.5,58.5C 165.171,53.5405 164.671,48.8739 162,44.5C 160.506,48.3041 159.672,47.9707 159.5,43.5C 137.134,43.8016 114.8,43.4682 92.5,42.5C 92.5,43.5 92.5,44.5 92.5,45.5C 90.712,45.2148 89.0453,45.5481 87.5,46.5C 90.0178,48.4638 92.6845,49.1305 95.5,48.5C 94.9747,49.1924 94.3081,49.6924 93.5,50C 98.1198,51.7597 102.12,54.5931 105.5,58.5C 107.182,61.1371 108.015,63.8038 108,66.5C 108.741,67.6405 109.575,67.6405 110.5,66.5C 111.395,68.2464 112.062,70.0797 112.5,72C 115.813,74.7857 117.479,78.2857 117.5,82.5C 114.173,78.7828 111.507,74.4494 109.5,69.5C 108.643,68.5748 107.643,67.9081 106.5,67.5C 101.735,60.9004 96.0687,55.0671 89.5,50C 86.0855,47.6261 82.4189,45.7928 78.5,44.5C 77.4019,43.603 77.4019,42.7697 78.5,42C 106.498,41.5 134.498,41.3334 162.5,41.5 Z"/></g>
<g><path style="opacity:0.412" fill="#141d5f" d="M 106.5,67.5 C 107.643,67.9081 108.643,68.5748 109.5,69.5C 111.507,74.4494 114.173,78.7828 117.5,82.5C 118.507,86.0061 120.007,89.3394 122,92.5C 122.494,94.1341 122.66,95.8008 122.5,97.5C 117.694,87.2218 112.361,77.2218 106.5,67.5 Z"/></g>
<g><path style="opacity:1" fill="#0d1973" d="M 51.5,86.5 C 53.5901,94.7872 55.9234,103.12 58.5,111.5C 57.2921,110.766 55.9587,110.433 54.5,110.5C 53.6806,102.735 52.014,95.0686 49.5,87.5C 47.7007,93.335 47.0341,99.335 47.5,105.5C 46.1778,96.3251 46.1778,86.9918 47.5,77.5C 49.0783,80.3783 50.4116,83.3783 51.5,86.5 Z"/></g>
<g><path style="opacity:0.997" fill="#101c71" d="M 178.5,72.5 C 186.403,87.3048 194.07,102.305 201.5,117.5C 198.726,114.754 196.56,111.42 195,107.5C 194,106.167 193,106.167 192,107.5C 191.79,106.197 191.957,104.864 192.5,103.5C 190.13,100.094 188.297,96.427 187,92.5C 185.989,91.6634 184.822,91.33 183.5,91.5C 183.663,89.1432 183.497,86.8098 183,84.5C 180.636,80.7814 179.136,76.7814 178.5,72.5 Z"/></g>
<g><path style="opacity:0.999" fill="#01148d" d="M 73.5,111.5 C 74.3261,106.684 74.8261,101.684 75,96.5C 75.8928,95.2888 76.7261,95.2888 77.5,96.5C 78.1073,101.904 79.1073,107.238 80.5,112.5C 80.0688,113.293 79.7355,114.127 79.5,115C 81.1872,118.59 82.1872,122.423 82.5,126.5C 83.0989,129.968 85.0989,131.135 88.5,130C 87.944,129.617 87.6107,129.117 87.5,128.5C 89.7193,125.403 92.386,122.737 95.5,120.5C 96.8333,120.833 98.1667,121.167 99.5,121.5C 99.5,122.833 99.5,124.167 99.5,125.5C 97.8008,125.34 96.1341,125.506 94.5,126C 95.6405,126.741 95.6405,127.575 94.5,128.5C 91.7417,130.491 89.4084,132.824 87.5,135.5C 85.8828,134.962 84.2161,134.629 82.5,134.5C 81.1721,137.356 80.1721,140.356 79.5,143.5C 78.1667,143.5 76.8333,143.5 75.5,143.5C 74.5655,144.568 74.2322,145.901 74.5,147.5C 73.5,147.5 72.5,147.5 71.5,147.5C 71.5,149.167 71.5,150.833 71.5,152.5C 68.7081,152.452 66.8747,153.785 66,156.5C 65.4312,153.986 65.9312,151.652 67.5,149.5C 67.1667,148.833 66.8333,148.167 66.5,147.5C 65.7417,151.179 63.7417,152.179 60.5,150.5C 61.1292,147.795 61.4626,145.128 61.5,142.5C 59.9293,140.118 59.096,137.451 59,134.5C 58.6667,134.833 58.3333,135.167 58,135.5C 56.3126,133.832 56.1459,131.999 57.5,130C 56.3333,126.833 55.1667,123.667 54,120.5C 53.6667,122.5 53.3333,124.5 53,126.5C 50.291,122.491 49.791,118.157 51.5,113.5C 51.278,111.945 50.6113,110.611 49.5,109.5C 51.7119,106.758 53.0452,107.258 53.5,111C 55.9406,112.392 58.274,112.559 60.5,111.5C 60.3709,104.155 60.0375,96.8219 59.5,89.5C 59.5,88.5 59.5,87.5 59.5,86.5C 60.8221,86.33 61.9887,86.6634 63,87.5C 65.3201,95.4144 67.1534,103.414 68.5,111.5C 70.1667,111.5 71.8333,111.5 73.5,111.5 Z"/></g>
<g><path style="opacity:0.443" fill="#15205f" d="M 51.5,86.5 C 50.4116,83.3783 49.0783,80.3783 47.5,77.5C 46.1778,86.9918 46.1778,96.3251 47.5,105.5C 48.0058,112.566 49.0058,119.566 50.5,126.5C 50.4573,127.416 50.1239,128.083 49.5,128.5C 45.7553,111.377 44.5886,94.0432 46,76.5C 46.8261,74.5946 47.9928,74.2612 49.5,75.5C 50.681,79.0716 51.3476,82.7383 51.5,86.5 Z"/></g>
<g><path style="opacity:1" fill="#041584" d="M 58.5,111.5 C 58.8333,111.5 59.1667,111.5 59.5,111.5C 59.8333,111.5 60.1667,111.5 60.5,111.5C 58.274,112.559 55.9406,112.392 53.5,111C 53.0452,107.258 51.7119,106.758 49.5,109.5C 50.6113,110.611 51.278,111.945 51.5,113.5C 49.791,118.157 50.291,122.491 53,126.5C 53.3333,124.5 53.6667,122.5 54,120.5C 55.1667,123.667 56.3333,126.833 57.5,130C 56.1459,131.999 56.3126,133.832 58,135.5C 58.3333,135.167 58.6667,134.833 59,134.5C 59.096,137.451 59.9293,140.118 61.5,142.5C 61.4626,145.128 61.1292,147.795 60.5,150.5C 63.7417,152.179 65.7417,151.179 66.5,147.5C 66.8333,148.167 67.1667,148.833 67.5,149.5C 65.9312,151.652 65.4312,153.986 66,156.5C 66.8747,153.785 68.7081,152.452 71.5,152.5C 71.5,150.833 71.5,149.167 71.5,147.5C 72.5,147.5 73.5,147.5 74.5,147.5C 74.2322,145.901 74.5655,144.568 75.5,143.5C 75.5,145.167 75.5,146.833 75.5,148.5C 74.5,148.5 73.5,148.5 72.5,148.5C 72.5,150.167 72.5,151.833 72.5,153.5C 68.9909,153.808 67.3243,155.808 67.5,159.5C 64.162,159.109 63.162,160.276 64.5,163C 62.1359,167.115 59.9692,171.281 58,175.5C 55.0901,173.376 54.2568,170.709 55.5,167.5C 56.325,166.614 57.325,166.281 58.5,166.5C 59.8339,162.823 61.1672,159.156 62.5,155.5C 62.4841,153.484 61.4841,152.484 59.5,152.5C 59.5,152.167 59.5,151.833 59.5,151.5C 59.4208,150.07 59.7542,148.736 60.5,147.5C 60.1543,146.304 59.6543,146.304 59,147.5C 57.6871,140.874 54.8538,135.207 50.5,130.5C 50.1667,129.833 49.8333,129.167 49.5,128.5C 50.1239,128.083 50.4573,127.416 50.5,126.5C 49.0058,119.566 48.0058,112.566 47.5,105.5C 47.0341,99.335 47.7007,93.335 49.5,87.5C 52.014,95.0686 53.6806,102.735 54.5,110.5C 55.9587,110.433 57.2921,110.766 58.5,111.5 Z"/></g>
<g><path style="opacity:1" fill="#0f1b6a" d="M 79.5,91.5 C 83.588,102.68 85.7547,114.347 86,126.5C 90.3931,122.597 94.8931,118.931 99.5,115.5C 98.1667,117.167 96.8333,118.833 95.5,120.5C 92.386,122.737 89.7193,125.403 87.5,128.5C 86.1779,128.67 85.0113,128.337 84,127.5C 84.5238,118.298 83.1904,109.298 80,100.5C 79.502,97.5184 79.3354,94.5184 79.5,91.5 Z"/></g>
<g><path style="opacity:0.075" fill="#202766" d="M 63.5,80.5 C 61.9928,78.7106 60.6595,76.7106 59.5,74.5C 58.1863,79.6523 58.1863,84.6523 59.5,89.5C 60.0375,96.8219 60.3709,104.155 60.5,111.5C 60.1667,111.5 59.8333,111.5 59.5,111.5C 58.58,99.1504 57.7467,86.817 57,74.5C 57.7253,72.842 58.892,72.342 60.5,73C 61.9913,75.3078 62.9913,77.8078 63.5,80.5 Z"/></g>
<g><path style="opacity:1" fill="#051581" d="M 79.5,89.5 C 79.5,90.1667 79.5,90.8333 79.5,91.5C 79.3354,94.5184 79.502,97.5184 80,100.5C 83.1904,109.298 84.5238,118.298 84,127.5C 85.0113,128.337 86.1779,128.67 87.5,128.5C 87.6107,129.117 87.944,129.617 88.5,130C 85.0989,131.135 83.0989,129.968 82.5,126.5C 82.1872,122.423 81.1872,118.59 79.5,115C 79.7355,114.127 80.0688,113.293 80.5,112.5C 79.1073,107.238 78.1073,101.904 77.5,96.5C 76.7261,95.2888 75.8928,95.2888 75,96.5C 74.8261,101.684 74.3261,106.684 73.5,111.5C 72.7919,100.481 72.7919,89.4814 73.5,78.5C 75.1369,82.4545 77.1369,86.1212 79.5,89.5 Z"/></g>
<g><path style="opacity:0.878" fill="#1b226e" d="M 122.5,97.5 C 124.182,98.8273 125.515,100.494 126.5,102.5C 127.403,105.391 127.736,108.391 127.5,111.5C 125.462,107.059 123.796,102.393 122.5,97.5 Z"/></g>
<g><path style="opacity:1" fill="#121a70" d="M 118.5,111.5 C 118.5,110.5 118.5,109.5 118.5,108.5C 116.076,108.192 113.743,108.526 111.5,109.5C 108.55,111.74 105.216,113.073 101.5,113.5C 107.518,108.834 113.851,104.501 120.5,100.5C 122.086,102.67 123.42,105.004 124.5,107.5C 123.168,109.833 121.168,111.166 118.5,111.5 Z"/></g>
<g><path style="opacity:0.392" fill="#141f70" d="M 79.5,89.5 C 77.1369,86.1212 75.1369,82.4545 73.5,78.5C 72.7919,89.4814 72.7919,100.481 73.5,111.5C 71.8333,111.5 70.1667,111.5 68.5,111.5C 67.1534,103.414 65.3201,95.4144 63,87.5C 61.9887,86.6634 60.8221,86.33 59.5,86.5C 59.5,87.5 59.5,88.5 59.5,89.5C 58.1863,84.6523 58.1863,79.6523 59.5,74.5C 60.6595,76.7106 61.9928,78.7106 63.5,80.5C 65.4279,90.6386 67.9279,100.639 71,110.5C 71.9269,98.0328 71.0936,85.6994 68.5,73.5C 69.1604,71.0403 70.4937,70.3736 72.5,71.5C 75.2322,77.3663 77.5655,83.3663 79.5,89.5 Z"/></g>
<g><path style="opacity:1" fill="#0a177e" d="M 118.5,111.5 C 115.725,114.605 112.392,116.938 108.5,118.5C 107.167,118.5 105.833,118.5 104.5,118.5C 104.5,119.5 104.5,120.5 104.5,121.5C 102.833,121.5 101.167,121.5 99.5,121.5C 98.1667,121.167 96.8333,120.833 95.5,120.5C 96.8333,118.833 98.1667,117.167 99.5,115.5C 99.8333,114.5 100.5,113.833 101.5,113.5C 105.216,113.073 108.55,111.74 111.5,109.5C 113.743,108.526 116.076,108.192 118.5,108.5C 118.5,109.5 118.5,110.5 118.5,111.5 Z"/></g>
<g><path style="opacity:0.994" fill="#051681" d="M 126.5,102.5 C 129.152,103.656 130.986,105.656 132,108.5C 131.814,112.484 131.814,116.484 132,120.5C 132.333,120.833 132.667,121.167 133,121.5C 133.219,120.062 133.719,118.729 134.5,117.5C 135.547,120.066 136.214,122.733 136.5,125.5C 136.471,127.643 135.804,128.977 134.5,129.5C 134.482,131.373 134.982,131.706 136,130.5C 136.494,132.134 136.66,133.801 136.5,135.5C 139.044,135.896 141.211,135.229 143,133.5C 143.143,137.619 143.81,141.619 145,145.5C 147.261,143.152 148.761,143.818 149.5,147.5C 148.349,149.325 147.682,151.325 147.5,153.5C 145.256,148.005 142.256,143.005 138.5,138.5C 137.58,137.933 137.246,138.599 137.5,140.5C 137.018,143.046 136.018,145.379 134.5,147.5C 133.833,140.011 133.167,132.678 132.5,125.5C 131.139,121.291 130.139,116.958 129.5,112.5C 128.817,112.137 128.15,111.804 127.5,111.5C 127.736,108.391 127.403,105.391 126.5,102.5 Z"/></g>
<g><path style="opacity:0.988" fill="#101865" d="M 50.5,130.5 C 54.8538,135.207 57.6871,140.874 59,147.5C 59.6543,146.304 60.1543,146.304 60.5,147.5C 59.7542,148.736 59.4208,150.07 59.5,151.5C 56.324,144.659 53.324,137.659 50.5,130.5 Z"/></g>
<g><path style="opacity:0.886" fill="#1c206a" d="M 108.5,118.5 C 95.4633,129.203 83.7966,141.203 73.5,154.5C 75.3863,151.545 76.3863,148.211 76.5,144.5C 77.9778,144.762 79.3112,144.429 80.5,143.5C 82.1691,140.17 84.5025,137.503 87.5,135.5C 89.4084,132.824 91.7417,130.491 94.5,128.5C 95.6405,127.575 95.6405,126.741 94.5,126C 96.1341,125.506 97.8008,125.34 99.5,125.5C 99.5,124.167 99.5,122.833 99.5,121.5C 101.167,121.5 102.833,121.5 104.5,121.5C 104.5,120.5 104.5,119.5 104.5,118.5C 105.833,118.5 107.167,118.5 108.5,118.5 Z"/></g>
<g><path style="opacity:1" fill="#161f5f" d="M 352.5,167.5 C 351.449,168.222 350.782,169.222 350.5,170.5C 331.219,145.76 306.219,129.594 275.5,122C 272.921,120.291 273.254,119.124 276.5,118.5C 307.51,126.32 332.844,142.654 352.5,167.5 Z"/></g>
<g><path style="opacity:1" fill="#121b74" d="M 87.5,135.5 C 84.5025,137.503 82.1691,140.17 80.5,143.5C 79.3112,144.429 77.9778,144.762 76.5,144.5C 76.3863,148.211 75.3863,151.545 73.5,154.5C 60.0215,173.124 50.0215,193.457 43.5,215.5C 45.0962,207.871 46.5962,200.204 48,192.5C 48.6667,191.167 49.3333,191.167 50,192.5C 50.6514,190.765 50.4847,189.098 49.5,187.5C 50.5019,185.49 51.5019,183.49 52.5,181.5C 55.0623,182.639 56.3956,181.639 56.5,178.5C 55.2214,178.026 54.0547,176.693 53,174.5C 52.6667,174.833 52.3333,175.167 52,175.5C 49.8706,179.3 48.204,183.3 47,187.5C 43.925,191.25 41.425,195.25 39.5,199.5C 44.5879,183.824 51.9213,169.324 61.5,156C 60.695,154.887 60.0283,153.721 59.5,152.5C 61.4841,152.484 62.4841,153.484 62.5,155.5C 61.1672,159.156 59.8339,162.823 58.5,166.5C 57.325,166.281 56.325,166.614 55.5,167.5C 54.2568,170.709 55.0901,173.376 58,175.5C 59.9692,171.281 62.1359,167.115 64.5,163C 63.162,160.276 64.162,159.109 67.5,159.5C 67.3243,155.808 68.9909,153.808 72.5,153.5C 72.5,151.833 72.5,150.167 72.5,148.5C 73.5,148.5 74.5,148.5 75.5,148.5C 75.5,146.833 75.5,145.167 75.5,143.5C 76.8333,143.5 78.1667,143.5 79.5,143.5C 80.1721,140.356 81.1721,137.356 82.5,134.5C 84.2161,134.629 85.8828,134.962 87.5,135.5 Z"/></g>
<g><path style="opacity:1" fill="#07177d" d="M 203.5,120.5 C 207.008,126.182 210.008,132.182 212.5,138.5C 212.62,139.586 213.287,140.253 214.5,140.5C 221.885,139.043 229.218,139.209 236.5,141C 230.137,141.247 223.804,141.747 217.5,142.5C 216.558,142.392 215.725,142.059 215,141.5C 214.324,146.138 215.824,149.805 219.5,152.5C 222.927,157.016 225.593,162.016 227.5,167.5C 226.5,167.5 225.5,167.5 224.5,167.5C 223.833,164.833 223.167,162.167 222.5,159.5C 218.5,160.167 216.833,158.5 217.5,154.5C 216.325,154.719 215.325,154.386 214.5,153.5C 215.056,149.783 213.723,146.617 210.5,144C 211.38,142.644 211.714,141.144 211.5,139.5C 210.022,139.762 208.689,139.429 207.5,138.5C 208.447,135.551 207.28,133.551 204,132.5C 203.71,130.956 203.044,129.623 202,128.5C 202.632,125.954 203.132,123.288 203.5,120.5 Z"/></g>
<g><path style="opacity:0.984" fill="#171f70" d="M 297.5,165.5 C 295.634,164.986 293.8,164.32 292,163.5C 290.317,164.176 290.15,165.176 291.5,166.5C 277.589,156.571 262.255,149.404 245.5,145C 235.545,143.502 225.545,143.169 215.5,144C 217.246,146.659 218.58,149.492 219.5,152.5C 215.824,149.805 214.324,146.138 215,141.5C 215.725,142.059 216.558,142.392 217.5,142.5C 223.804,141.747 230.137,141.247 236.5,141C 229.218,139.209 221.885,139.043 214.5,140.5C 213.287,140.253 212.62,139.586 212.5,138.5C 244.825,135.276 273.159,144.276 297.5,165.5 Z"/></g>
<g><path style="opacity:1" fill="#131b7c" d="M 385.5,90.5 C 384.093,95.0612 383.093,99.7279 382.5,104.5C 385.328,102.599 386.994,103.266 387.5,106.5C 387.167,106.5 386.833,106.5 386.5,106.5C 386.565,106.062 386.399,105.728 386,105.5C 373.057,136.372 359.891,167.039 346.5,197.5C 346.588,193.736 347.588,190.236 349.5,187C 348.789,185.745 347.956,184.579 347,183.5C 345.905,187.608 344.738,191.608 343.5,195.5C 342.5,195.5 341.5,195.5 340.5,195.5C 344.117,187.269 347.45,178.935 350.5,170.5C 350.782,169.222 351.449,168.222 352.5,167.5C 363.246,141.68 374.246,116.013 385.5,90.5 Z"/></g>
<g><path style="opacity:1" fill="#121a7d" d="M 297.5,165.5 C 304.752,170.578 311.585,176.245 318,182.5C 318.779,184.906 317.946,186.573 315.5,187.5C 307.506,180.506 299.506,173.506 291.5,166.5C 290.15,165.176 290.317,164.176 292,163.5C 293.8,164.32 295.634,164.986 297.5,165.5 Z"/></g>
<g><path style="opacity:1" fill="#09177f" d="M 227.5,167.5 C 234.929,180.023 241.596,193.023 247.5,206.5C 245.198,208.077 243.698,207.411 243,204.5C 241.817,205.731 240.651,205.731 239.5,204.5C 241.339,202.473 241.839,200.14 241,197.5C 239.019,195.641 238.019,193.308 238,190.5C 237.586,190.957 237.086,191.291 236.5,191.5C 235.534,189.211 234.201,187.211 232.5,185.5C 233.494,180.801 232.16,176.801 228.5,173.5C 227.844,171.547 227.511,169.547 227.5,167.5 Z"/></g>
<g><path style="opacity:0.976" fill="#0f1c6e" d="M 132.5,125.5 C 133.167,132.678 133.833,140.011 134.5,147.5C 136.018,145.379 137.018,143.046 137.5,140.5C 137.333,158.17 137.5,175.836 138,193.5C 143.229,185.548 149.063,178.048 155.5,171C 149.171,160.507 143.504,149.673 138.5,138.5C 142.256,143.005 145.256,148.005 147.5,153.5C 150.091,154.991 151.091,157.325 150.5,160.5C 151.873,160.343 153.207,160.51 154.5,161C 153.424,162.726 153.257,164.559 154,166.5C 155.861,168.888 157.194,171.554 158,174.5C 159.11,176.037 160.61,176.703 162.5,176.5C 162.907,181.307 163.907,185.974 165.5,190.5C 162.774,186.054 160.274,181.387 158,176.5C 150.177,184.655 143.51,193.655 138,203.5C 137.5,236.832 137.333,270.165 137.5,303.5C 137.167,303.5 136.833,303.5 136.5,303.5C 135.336,271.003 135.169,238.336 136,205.5C 136.649,202.295 137.815,199.295 139.5,196.5C 139.167,196.167 138.833,195.833 138.5,195.5C 137.191,197.891 136.191,197.891 135.5,195.5C 135.68,194.446 136.013,193.446 136.5,192.5C 135.851,179.532 135.184,166.532 134.5,153.5C 133.825,207.538 133.158,261.538 132.5,315.5C 132.261,317.467 132.594,319.301 133.5,321C 129.139,328.859 125.472,337.026 122.5,345.5C 121.643,346.425 120.643,347.092 119.5,347.5C 124.215,338.689 127.549,329.356 129.5,319.5C 130.469,317.337 131.302,315.004 132,312.5C 132.5,250.168 132.667,187.834 132.5,125.5 Z"/></g>
<g><path style="opacity:0.761" fill="#1f236f" d="M 168.5,197.5 C 173.222,201.761 176.222,207.095 177.5,213.5C 174.009,208.526 171.009,203.192 168.5,197.5 Z"/></g>
<g><path style="opacity:1" fill="#081880" d="M 43.5,215.5 C 43.634,217.292 43.3007,218.958 42.5,220.5C 41.8333,221.167 41.1667,221.833 40.5,222.5C 41.5688,217.822 41.5688,213.156 40.5,208.5C 38.1239,212.477 36.9572,216.81 37,221.5C 36.5831,222.756 35.7498,223.423 34.5,223.5C 34.5524,219.802 34.8857,216.135 35.5,212.5C 36.0569,207.835 37.3902,203.502 39.5,199.5C 41.425,195.25 43.925,191.25 47,187.5C 48.204,183.3 49.8706,179.3 52,175.5C 52.3333,175.167 52.6667,174.833 53,174.5C 54.0547,176.693 55.2214,178.026 56.5,178.5C 56.3956,181.639 55.0623,182.639 52.5,181.5C 51.5019,183.49 50.5019,185.49 49.5,187.5C 50.4847,189.098 50.6514,190.765 50,192.5C 49.3333,191.167 48.6667,191.167 48,192.5C 46.5962,200.204 45.0962,207.871 43.5,215.5 Z"/></g>
<g><path style="opacity:0.478" fill="#222c69" d="M 35.5,212.5 C 34.8857,216.135 34.5524,219.802 34.5,223.5C 33.1667,226.833 31.8333,230.167 30.5,233.5C 31.4091,226.202 33.0757,219.202 35.5,212.5 Z"/></g>
<g><path style="opacity:0.157" fill="#0f175e" d="M 386.5,106.5 C 386.833,106.5 387.167,106.5 387.5,106.5C 388.301,108.042 388.634,109.708 388.5,111.5C 388.396,191.669 387.73,271.669 386.5,351.5C 386.5,269.833 386.5,188.167 386.5,106.5 Z"/></g>
<g><path style="opacity:0.153" fill="#0f2572" d="M 455.5,54.5 C 455.313,56.5643 454.813,58.5643 454,60.5C 453.5,158.499 453.333,256.499 453.5,354.5C 452.168,254.999 452.168,155.333 453.5,55.5C 454.183,55.1373 454.85,54.8039 455.5,54.5 Z"/></g>
<g><path style="opacity:1" fill="#05137f" d="M 136.5,303.5 C 136.5,307.833 136.5,312.167 136.5,316.5C 135.292,315.766 133.959,315.433 132.5,315.5C 133.158,261.538 133.825,207.538 134.5,153.5C 135.184,166.532 135.851,179.532 136.5,192.5C 136.013,193.446 135.68,194.446 135.5,195.5C 136.191,197.891 137.191,197.891 138.5,195.5C 138.833,195.833 139.167,196.167 139.5,196.5C 137.815,199.295 136.649,202.295 136,205.5C 135.169,238.336 135.336,271.003 136.5,303.5 Z"/></g>
<g><path style="opacity:1" fill="#041389" d="M 40.5,222.5 C 39.8906,228.591 38.5573,234.258 36.5,239.5C 35.5,239.5 34.5,239.5 33.5,239.5C 33.114,243.876 33.7806,248.043 35.5,252C 34.1791,259.803 34.1791,267.637 35.5,275.5C 34.6704,279.469 34.0037,283.469 33.5,287.5C 34.5,287.5 35.5,287.5 36.5,287.5C 37.3287,290.469 37.4954,293.469 37,296.5C 36.2904,297.973 35.1238,298.64 33.5,298.5C 33.8016,295.941 33.4682,293.607 32.5,291.5C 32.6716,290.508 32.3382,289.842 31.5,289.5C 31.3334,271.497 31.5001,253.497 32,235.5C 33.3591,231.595 34.1924,227.595 34.5,223.5C 35.7498,223.423 36.5831,222.756 37,221.5C 36.9572,216.81 38.1239,212.477 40.5,208.5C 41.5688,213.156 41.5688,217.822 40.5,222.5 Z"/></g>
<g><path style="opacity:1" fill="#071677" d="M 34.5,223.5 C 34.1924,227.595 33.3591,231.595 32,235.5C 31.5001,253.497 31.3334,271.497 31.5,289.5C 30.8333,287.833 30.1667,286.167 29.5,284.5C 29.5,283.833 29.5,283.167 29.5,282.5C 29.2834,266.943 29.6168,251.277 30.5,235.5C 30.5,234.833 30.5,234.167 30.5,233.5C 31.8333,230.167 33.1667,226.833 34.5,223.5 Z"/></g>
<g><path style="opacity:1" fill="#051685" d="M 388.5,111.5 C 388.852,192.552 389.852,273.718 391.5,355C 391.093,359.337 390.259,359.171 389,354.5C 388.744,360.032 386.244,364.032 381.5,366.5C 384.153,361.876 385.819,356.876 386.5,351.5C 387.73,271.669 388.396,191.669 388.5,111.5 Z"/></g>
<g><path style="opacity:1" fill="#141c7d" d="M 188.5,234.5 C 190.636,236.102 192.302,238.102 193.5,240.5C 194.234,243.666 195.4,246.666 197,249.5C 198.503,249.835 199.836,249.835 201,249.5C 201.333,251.167 201.667,252.833 202,254.5C 205.059,256.761 205.893,259.594 204.5,263C 205.984,266.13 207.317,269.297 208.5,272.5C 200.818,260.473 194.151,247.806 188.5,234.5 Z"/></g>
<g><path style="opacity:1" fill="#0a177e" d="M 256.5,223.5 C 264.262,236.69 271.262,250.356 277.5,264.5C 276.197,264.378 274.864,264.378 273.5,264.5C 273.931,263.707 274.265,262.873 274.5,262C 272.333,258.833 270.167,255.667 268,252.5C 267.166,248.321 265.832,244.321 264,240.5C 262.605,239.185 261.605,239.519 261,241.5C 260.585,239.709 259.585,238.376 258,237.5C 257.661,235.166 257.828,232.832 258.5,230.5C 257.522,228.223 256.855,225.89 256.5,223.5 Z"/></g>
<g><path style="opacity:1" fill="#0e1987" d="M 346.5,197.5 C 331.261,235.57 315.261,273.237 298.5,310.5C 299.359,306.438 300.526,302.438 302,298.5C 302.667,296.833 302.667,295.167 302,293.5C 300.442,292.655 299.442,293.321 299,295.5C 299.44,299.413 297.94,302.079 294.5,303.5C 292.274,300.196 289.94,297.03 287.5,294C 287.031,292.038 287.697,290.205 289.5,288.5C 288.754,287.264 288.421,285.93 288.5,284.5C 291.226,288.946 293.726,293.613 296,298.5C 310.885,264.077 325.718,229.744 340.5,195.5C 341.5,195.5 342.5,195.5 343.5,195.5C 344.738,191.608 345.905,187.608 347,183.5C 347.956,184.579 348.789,185.745 349.5,187C 347.588,190.236 346.588,193.736 346.5,197.5 Z"/></g>
<g><path style="opacity:0.306" fill="#21295e" d="M 30.5,235.5 C 29.6168,251.277 29.2834,266.943 29.5,282.5C 28.8338,276.342 28.5004,270.009 28.5,263.5C 28.3232,253.952 28.9899,244.618 30.5,235.5 Z"/></g>
<g><path style="opacity:0.765" fill="#132064" d="M 42.5,220.5 C 35.3527,251.669 36.0193,282.669 44.5,313.5C 42.4375,308.835 40.6042,303.835 39,298.5C 36.6898,278.959 35.8565,259.293 36.5,239.5C 38.5573,234.258 39.8906,228.591 40.5,222.5C 41.1667,221.833 41.8333,221.167 42.5,220.5 Z"/></g>
<g><path style="opacity:0.776" fill="#0b1959" d="M 127.5,111.5 C 128.15,111.804 128.817,112.137 129.5,112.5C 130.139,116.958 131.139,121.291 132.5,125.5C 132.667,187.834 132.5,250.168 132,312.5C 131.302,315.004 130.469,317.337 129.5,319.5C 130.055,313.846 130.555,308.18 131,302.5C 131.667,244.167 131.667,185.833 131,127.5C 129.829,122.153 128.663,116.819 127.5,111.5 Z"/></g>
<g><path style="opacity:1" fill="#171f64" d="M 92.5,302.5 C 92.9113,297.43 94.2446,292.597 96.5,288C 96.1667,287.5 95.8333,287 95.5,286.5C 89.8825,295.209 87.2159,304.876 87.5,315.5C 87.7922,320.509 88.1255,325.509 88.5,330.5C 83.7398,313.003 86.4064,296.67 96.5,281.5C 98.8183,280.166 100.485,280.832 101.5,283.5C 97.1466,289.244 94.1466,295.578 92.5,302.5 Z"/></g>
<g><path style="opacity:1" fill="#171b6e" d="M 208.5,272.5 C 212.496,277.561 215.829,283.228 218.5,289.5C 219.046,291.135 219.38,292.801 219.5,294.5C 215.325,287.484 211.659,280.151 208.5,272.5 Z"/></g>
<g><path style="opacity:0.4" fill="#212869" d="M 29.5,284.5 C 30.1667,286.167 30.8333,287.833 31.5,289.5C 32.3382,289.842 32.6716,290.508 32.5,291.5C 32.3359,294.187 32.5026,296.854 33,299.5C 35.3069,308.397 37.4736,317.397 39.5,326.5C 34.3057,313.051 30.9724,299.051 29.5,284.5 Z"/></g>
<g><path style="opacity:0.997" fill="#0c1b72" d="M 136.5,303.5 C 136.833,303.5 137.167,303.5 137.5,303.5C 138.192,310.96 139.526,318.294 141.5,325.5C 140.153,324.829 138.986,324.829 138,325.5C 137.637,322.456 137.137,319.456 136.5,316.5C 136.5,312.167 136.5,307.833 136.5,303.5 Z"/></g>
<g><path style="opacity:0.996" fill="#10197d" d="M 219.5,295.5 C 220.496,295.414 221.329,295.748 222,296.5C 223.31,299.127 224.977,301.46 227,303.5C 227.333,305.5 227.667,307.5 228,309.5C 231.083,311.665 232.583,314.665 232.5,318.5C 234.331,317.948 235.997,317.948 237.5,318.5C 236.833,319.167 236.167,319.833 235.5,320.5C 236.246,321.736 236.579,323.07 236.5,324.5C 237.552,324.351 238.552,324.517 239.5,325C 238.359,325.741 238.359,326.575 239.5,327.5C 242.006,329.179 244.339,331.013 246.5,333C 246.089,334.144 245.756,335.311 245.5,336.5C 246.906,339.337 247.739,342.337 248,345.5C 248.414,345.957 248.914,346.291 249.5,346.5C 250.915,351.645 252.582,356.645 254.5,361.5C 258.074,360.908 260.074,362.408 260.5,366C 259.027,366.71 258.36,367.876 258.5,369.5C 245.516,344.868 232.516,320.201 219.5,295.5 Z"/></g>
<g><path style="opacity:1" fill="#01148d" d="M 132.5,315.5 C 133.959,315.433 135.292,315.766 136.5,316.5C 137.137,319.456 137.637,322.456 138,325.5C 138.986,324.829 140.153,324.829 141.5,325.5C 141.764,330.668 143.097,335.501 145.5,340C 145.05,341.285 144.383,342.452 143.5,343.5C 145.766,344.314 148.1,344.814 150.5,345C 152.657,346.912 154.991,348.579 157.5,350C 158.5,353 159.5,356 160.5,359C 162.875,361.407 163.875,360.907 163.5,357.5C 166.831,357.018 169.497,358.018 171.5,360.5C 168.761,364.924 169.595,365.924 174,363.5C 175.194,365.024 176.694,366.19 178.5,367C 177.346,367.914 177.513,368.747 179,369.5C 181.478,370.447 183.812,370.447 186,369.5C 188.268,370.076 189.268,371.41 189,373.5C 185.256,372.374 181.423,372.207 177.5,373C 178.167,373.333 178.833,373.667 179.5,374C 176.759,374.977 173.925,375.477 171,375.5C 148.521,374.54 124.188,374.54 98,375.5C 96.699,375.639 95.8656,376.305 95.5,377.5C 90.8333,376.167 86.1667,376.167 81.5,377.5C 81.5,376.167 81.5,374.833 81.5,373.5C 87.093,372.358 92.4263,370.525 97.5,368C 99.6355,367.124 100.969,365.624 101.5,363.5C 102.167,363.5 102.5,363.167 102.5,362.5C 103.29,361.391 103.79,360.058 104,358.5C 104.383,359.056 104.883,359.389 105.5,359.5C 106.117,359.611 106.617,359.944 107,360.5C 111.398,356.271 115.564,351.938 119.5,347.5C 120.643,347.092 121.643,346.425 122.5,345.5C 125.472,337.026 129.139,328.859 133.5,321C 132.594,319.301 132.261,317.467 132.5,315.5 Z"/></g>
<g><path style="opacity:1" fill="#19216a" d="M 39.5,326.5 C 43.93,330.748 46.2633,336.082 46.5,342.5C 43.4073,337.575 41.074,332.242 39.5,326.5 Z"/></g>
<g><path style="opacity:1" fill="#111977" d="M 141.5,325.5 C 145.1,333.847 150.1,341.347 156.5,348C 164.054,353.938 172.054,359.105 180.5,363.5C 177.406,362.787 174.406,361.787 171.5,360.5C 169.497,358.018 166.831,357.018 163.5,357.5C 163.875,360.907 162.875,361.407 160.5,359C 159.5,356 158.5,353 157.5,350C 154.991,348.579 152.657,346.912 150.5,345C 148.1,344.814 145.766,344.314 143.5,343.5C 144.383,342.452 145.05,341.285 145.5,340C 143.097,335.501 141.764,330.668 141.5,325.5 Z"/></g>
<g><path style="opacity:1" fill="#051683" d="M 36.5,239.5 C 35.8565,259.293 36.6898,278.959 39,298.5C 40.6042,303.835 42.4375,308.835 44.5,313.5C 46.0026,317.341 47.3359,321.341 48.5,325.5C 48.4303,332.47 50.5969,338.47 55,343.5C 55.7229,346.07 56.8896,348.403 58.5,350.5C 57.675,351.386 56.675,351.719 55.5,351.5C 55.728,353.355 55.0613,354.188 53.5,354C 52.1165,350.681 50.4498,347.515 48.5,344.5C 48.0431,343.702 47.3764,343.369 46.5,343.5C 46.5,343.167 46.5,342.833 46.5,342.5C 46.2633,336.082 43.93,330.748 39.5,326.5C 37.4736,317.397 35.3069,308.397 33,299.5C 32.5026,296.854 32.3359,294.187 32.5,291.5C 33.4682,293.607 33.8016,295.941 33.5,298.5C 35.1238,298.64 36.2904,297.973 37,296.5C 37.4954,293.469 37.3287,290.469 36.5,287.5C 35.5,287.5 34.5,287.5 33.5,287.5C 34.0037,283.469 34.6704,279.469 35.5,275.5C 34.1791,267.637 34.1791,259.803 35.5,252C 33.7806,248.043 33.114,243.876 33.5,239.5C 34.5,239.5 35.5,239.5 36.5,239.5 Z"/></g>
<g><path style="opacity:1" fill="#101b6f" d="M 92.5,302.5 C 90.4165,316.67 92.2499,330.337 98,343.5C 100.785,348.735 103.285,354.068 105.5,359.5C 104.883,359.389 104.383,359.056 104,358.5C 103.79,360.058 103.29,361.391 102.5,362.5C 95.692,352.873 91.0253,342.207 88.5,330.5C 88.1255,325.509 87.7922,320.509 87.5,315.5C 87.2159,304.876 89.8825,295.209 95.5,286.5C 95.8333,287 96.1667,287.5 96.5,288C 94.2446,292.597 92.9113,297.43 92.5,302.5 Z"/></g>
<g><path style="opacity:1" fill="#0e1876" d="M 48.5,325.5 C 54.6702,341.509 62.6702,356.509 72.5,370.5C 70.0034,368.129 67.0034,367.129 63.5,367.5C 63.472,369.582 64.1387,371.416 65.5,373C 66.9961,373.507 68.1627,373.007 69,371.5C 71.2014,373.366 71.7014,375.532 70.5,378C 72.9566,381.744 75.2899,385.578 77.5,389.5C 64.7031,375.931 54.3698,360.597 46.5,343.5C 47.3764,343.369 48.0431,343.702 48.5,344.5C 50.4498,347.515 52.1165,350.681 53.5,354C 55.0613,354.188 55.728,353.355 55.5,351.5C 56.675,351.719 57.675,351.386 58.5,350.5C 56.8896,348.403 55.7229,346.07 55,343.5C 50.5969,338.47 48.4303,332.47 48.5,325.5 Z"/></g>
<g><path style="opacity:1" fill="#161c78" d="M 276.5,361.5 C 274.707,366.875 272.707,372.209 270.5,377.5C 267.691,378.8 265.024,378.8 262.5,377.5C 264.5,377.5 266.5,377.5 268.5,377.5C 268.719,376.325 268.386,375.325 267.5,374.5C 266.391,375.59 265.391,375.59 264.5,374.5C 266.396,373.534 268.396,373.201 270.5,373.5C 271.324,368.736 273.324,364.736 276.5,361.5 Z"/></g>
<g><path style="opacity:1" fill="#051686" d="M 171.5,360.5 C 174.406,361.787 177.406,362.787 180.5,363.5C 195.547,368.354 210.547,372.854 225.5,377C 205.652,378.487 185.652,378.987 165.5,378.5C 142.339,377.502 119.006,377.169 95.5,377.5C 95.8656,376.305 96.699,375.639 98,375.5C 124.188,374.54 148.521,374.54 171,375.5C 173.925,375.477 176.759,374.977 179.5,374C 178.833,373.667 178.167,373.333 177.5,373C 181.423,372.207 185.256,372.374 189,373.5C 189.268,371.41 188.268,370.076 186,369.5C 183.812,370.447 181.478,370.447 179,369.5C 177.513,368.747 177.346,367.914 178.5,367C 176.694,366.19 175.194,365.024 174,363.5C 169.595,365.924 168.761,364.924 171.5,360.5 Z"/></g>
<g><path style="opacity:0.89" fill="#0b1c76" d="M 101.5,363.5 C 100.969,365.624 99.6355,367.124 97.5,368C 92.4263,370.525 87.093,372.358 81.5,373.5C 81.5,374.833 81.5,376.167 81.5,377.5C 86.1667,376.167 90.8333,376.167 95.5,377.5C 119.006,377.169 142.339,377.502 165.5,378.5C 136.831,378.333 108.165,378.5 79.5,379C 85.6986,386.364 92.3653,393.198 99.5,399.5C 98.0695,399.579 96.7362,399.246 95.5,398.5C 91.9492,395.118 88.6159,391.618 85.5,388C 84.552,387.517 83.552,387.351 82.5,387.5C 82.9783,384.722 81.9783,382.722 79.5,381.5C 78.5713,380.311 78.238,378.978 78.5,377.5C 76.8333,377.5 75.1667,377.5 73.5,377.5C 73.552,375.097 73.2186,372.764 72.5,370.5C 74.1454,371.479 75.4787,372.812 76.5,374.5C 85.4929,372.133 93.8263,368.466 101.5,363.5 Z"/></g>
<g><path style="opacity:0.89" fill="#101d8b" d="M 463.5,370.5 C 475.373,372.807 487.373,374.307 499.5,375C 500.973,375.71 501.64,376.876 501.5,378.5C 443.833,378.5 386.167,378.5 328.5,378.5C 328.36,376.876 329.027,375.71 330.5,375C 336.548,374.748 342.548,374.248 348.5,373.5C 348.5,374.833 348.5,376.167 348.5,377.5C 386.835,377.667 425.168,377.5 463.5,377C 465.167,376.667 466.833,376.333 468.5,376C 467.663,374.989 467.33,373.822 467.5,372.5C 465.62,372.771 464.287,372.104 463.5,370.5 Z"/></g>
<g><path style="opacity:1" fill="#121a5c" d="M 166.5,403.5 C 165.176,402.15 164.176,402.317 163.5,404C 164.414,405.406 165.08,406.906 165.5,408.5C 162.63,405.787 160.296,402.62 158.5,399C 159.212,397.558 160.379,396.725 162,396.5C 164.009,398.521 165.509,400.854 166.5,403.5 Z"/></g>
<g><path style="opacity:1" fill="#051584" d="M 72.5,370.5 C 73.2186,372.764 73.552,375.097 73.5,377.5C 75.1667,377.5 76.8333,377.5 78.5,377.5C 78.238,378.978 78.5713,380.311 79.5,381.5C 81.9783,382.722 82.9783,384.722 82.5,387.5C 83.552,387.351 84.552,387.517 85.5,388C 88.6159,391.618 91.9492,395.118 95.5,398.5C 96.7362,399.246 98.0695,399.579 99.5,399.5C 99.5106,401.017 100.177,402.184 101.5,403C 107.116,405.612 110.949,409.779 113,415.5C 114.726,414.424 116.559,414.257 118.5,415C 122.618,416.955 125.952,419.788 128.5,423.5C 126.977,426.188 125.643,426.022 124.5,423C 121.833,422.667 119.167,422.333 116.5,422C 115.62,420.644 115.286,419.144 115.5,417.5C 111.522,418.034 108.522,416.534 106.5,413C 105.207,412.51 103.873,412.343 102.5,412.5C 100.998,410.825 99.6647,408.992 98.5,407C 93.0405,405.046 90.0405,401.212 89.5,395.5C 87.1667,395.5 84.8333,395.5 82.5,395.5C 80.8437,393.54 79.177,391.54 77.5,389.5C 75.2899,385.578 72.9566,381.744 70.5,378C 71.7014,375.532 71.2014,373.366 69,371.5C 68.1627,373.007 66.9961,373.507 65.5,373C 64.1387,371.416 63.472,369.582 63.5,367.5C 67.0034,367.129 70.0034,368.129 72.5,370.5 Z"/></g>
<g><path style="opacity:0.995" fill="#03168d" d="M 364.5,405.5 C 364.833,405.5 365.167,405.5 365.5,405.5C 369.647,406.325 373.981,406.825 378.5,407C 371.872,409.407 365.205,411.24 358.5,412.5C 356.076,412.808 353.743,412.474 351.5,411.5C 350.91,410.201 349.91,409.368 348.5,409C 354.223,408.953 359.556,407.786 364.5,405.5 Z"/></g>
<g><path style="opacity:1" fill="#121869" d="M 82.5,395.5 C 84.8333,395.5 87.1667,395.5 89.5,395.5C 90.0405,401.212 93.0405,405.046 98.5,407C 99.6647,408.992 100.998,410.825 102.5,412.5C 95.2402,407.577 88.5736,401.91 82.5,395.5 Z"/></g>
<g><path style="opacity:0.09" fill="#111b6f" d="M 365.5,405.5 C 371.176,405.334 376.843,405.501 382.5,406C 383.308,406.308 383.975,406.808 384.5,407.5C 378.973,409.424 373.306,410.924 367.5,412C 364.518,412.498 361.518,412.665 358.5,412.5C 365.205,411.24 371.872,409.407 378.5,407C 373.981,406.825 369.647,406.325 365.5,405.5 Z"/></g>
<g><path style="opacity:1" fill="#141c7b" d="M 166.5,403.5 C 180.84,417.511 198.173,424.511 218.5,424.5C 225.839,423.832 233.173,423.166 240.5,422.5C 240.5,424.167 240.5,425.833 240.5,427.5C 224.394,430.475 208.394,429.975 192.5,426C 181.749,422.727 172.749,416.894 165.5,408.5C 165.08,406.906 164.414,405.406 163.5,404C 164.176,402.317 165.176,402.15 166.5,403.5 Z"/></g>
<g><path style="opacity:0.998" fill="#0e1984" d="M 364.5,405.5 C 359.556,407.786 354.223,408.953 348.5,409C 349.91,409.368 350.91,410.201 351.5,411.5C 353.743,412.474 356.076,412.808 358.5,412.5C 345.335,415.88 332.335,420.047 319.5,425C 312.685,428.241 306.018,431.741 299.5,435.5C 299.33,434.178 299.663,433.011 300.5,432C 299.833,431.667 299.167,431.333 298.5,431C 300.81,430.503 303.143,430.337 305.5,430.5C 305.343,428.182 304.176,426.516 302,425.5C 300.234,426.233 298.401,426.567 296.5,426.5C 305.18,419.995 314.847,415.328 325.5,412.5C 323.3,414.64 320.633,416.14 317.5,417C 321.416,419.563 325.75,420.73 330.5,420.5C 330.089,417.724 330.922,417.057 333,418.5C 334.762,418.056 334.595,417.556 332.5,417C 337.611,416.571 342.611,415.738 347.5,414.5C 347.657,413.127 347.49,411.793 347,410.5C 344.964,411.102 343.13,412.102 341.5,413.5C 340.304,413.154 340.304,412.654 341.5,412C 336.512,411.913 331.512,412.08 326.5,412.5C 338.724,408.46 351.391,406.127 364.5,405.5 Z"/></g>
<g><path style="opacity:1" fill="#011490" d="M 325.5,412.5 C 325.833,412.5 326.167,412.5 326.5,412.5C 331.512,412.08 336.512,411.913 341.5,412C 340.304,412.654 340.304,413.154 341.5,413.5C 343.13,412.102 344.964,411.102 347,410.5C 347.49,411.793 347.657,413.127 347.5,414.5C 342.611,415.738 337.611,416.571 332.5,417C 334.595,417.556 334.762,418.056 333,418.5C 330.922,417.057 330.089,417.724 330.5,420.5C 325.75,420.73 321.416,419.563 317.5,417C 320.633,416.14 323.3,414.64 325.5,412.5 Z"/></g>
<g><path style="opacity:1" fill="#0e1970" d="M 99.5,399.5 C 113.017,410.091 127.35,419.425 142.5,427.5C 150.984,430.326 159.318,433.326 167.5,436.5C 162.589,436.967 157.922,436.3 153.5,434.5C 151.865,435.046 150.199,435.38 148.5,435.5C 148.5,436.5 148.5,437.5 148.5,438.5C 155.094,440.698 161.761,442.698 168.5,444.5C 169.5,445.167 170.5,445.833 171.5,446.5C 151.755,441.305 133.089,433.472 115.5,423C 110.731,419.96 106.397,416.46 102.5,412.5C 103.873,412.343 105.207,412.51 106.5,413C 108.522,416.534 111.522,418.034 115.5,417.5C 115.286,419.144 115.62,420.644 116.5,422C 119.167,422.333 121.833,422.667 124.5,423C 125.643,426.022 126.977,426.188 128.5,423.5C 125.952,419.788 122.618,416.955 118.5,415C 116.559,414.257 114.726,414.424 113,415.5C 110.949,409.779 107.116,405.612 101.5,403C 100.177,402.184 99.5106,401.017 99.5,399.5 Z"/></g>
<g><path style="opacity:1" fill="#041386" d="M 142.5,427.5 C 143.344,429.759 145.011,430.759 147.5,430.5C 147.22,434.225 145.22,435.392 141.5,434C 141.833,433.667 142.167,433.333 142.5,433C 140.337,432.755 138.67,431.755 137.5,430C 134.432,430.048 132.098,428.881 130.5,426.5C 131.167,426.167 131.833,425.833 132.5,425.5C 135.82,426.297 139.154,426.964 142.5,427.5 Z"/></g>
<g><path style="opacity:1" fill="#06148c" d="M 299.5,435.5 C 291.789,437.097 284.289,437.43 277,436.5C 276.53,435.423 276.697,434.423 277.5,433.5C 283.751,430.971 290.085,428.638 296.5,426.5C 298.401,426.567 300.234,426.233 302,425.5C 304.176,426.516 305.343,428.182 305.5,430.5C 303.143,430.337 300.81,430.503 298.5,431C 299.167,431.333 299.833,431.667 300.5,432C 299.663,433.011 299.33,434.178 299.5,435.5 Z"/></g>
<g><path style="opacity:1" fill="#0c1981" d="M 167.5,436.5 C 175.017,437.882 182.351,439.549 189.5,441.5C 192.675,442.429 196.009,443.262 199.5,444C 209.161,444.5 218.828,444.666 228.5,444.5C 214.35,445.668 200.183,445.668 186,444.5C 183.23,443.385 180.73,441.885 178.5,440C 175.518,439.502 172.518,439.335 169.5,439.5C 169.371,441.216 169.038,442.883 168.5,444.5C 161.761,442.698 155.094,440.698 148.5,438.5C 148.5,437.5 148.5,436.5 148.5,435.5C 150.199,435.38 151.865,435.046 153.5,434.5C 157.922,436.3 162.589,436.967 167.5,436.5 Z"/></g>
<g><path style="opacity:1" fill="#111a7c" d="M 277.5,433.5 C 276.697,434.423 276.53,435.423 277,436.5C 284.289,437.43 291.789,437.097 299.5,435.5C 298.942,436.79 297.942,437.623 296.5,438C 271.216,447.456 245.049,452.29 218,452.5C 208.951,452.663 200.117,451.996 191.5,450.5C 208.538,450.893 225.538,450.393 242.5,449C 245.714,448.651 247.047,447.151 246.5,444.5C 244.177,445.672 241.844,445.672 239.5,444.5C 239.5,443.833 239.5,443.167 239.5,442.5C 252.369,440.45 265.035,437.45 277.5,433.5 Z"/></g>
<g><path style="opacity:1" fill="#03148e" d="M 263.5,438.5 C 269.29,438.208 274.957,438.875 280.5,440.5C 276.105,442.687 271.438,444.187 266.5,445C 260.386,445.213 254.719,445.379 249.5,445.5C 248.304,445.154 248.304,444.654 249.5,444C 251.5,443.667 253.5,443.333 255.5,443C 255.167,442.667 254.833,442.333 254.5,442C 257.044,440.908 259.711,440.241 262.5,440C 263.056,439.617 263.389,439.117 263.5,438.5 Z"/></g>
<g><path style="opacity:0.478" fill="#131e6c" d="M 189.5,441.5 C 206.133,443.589 222.8,443.923 239.5,442.5C 239.5,443.167 239.5,443.833 239.5,444.5C 235.833,444.5 232.167,444.5 228.5,444.5C 218.828,444.666 209.161,444.5 199.5,444C 196.009,443.262 192.675,442.429 189.5,441.5 Z"/></g>
<g><path style="opacity:1" fill="#151e70" d="M 171.5,446.5 C 178.404,446.273 184.737,447.606 190.5,450.5C 183.891,449.913 177.558,448.579 171.5,446.5 Z"/></g>
<g><path style="opacity:1" fill="#02148c" d="M 228.5,444.5 C 232.167,444.5 235.833,444.5 239.5,444.5C 241.844,445.672 244.177,445.672 246.5,444.5C 247.047,447.151 245.714,448.651 242.5,449C 225.538,450.393 208.538,450.893 191.5,450.5C 191.167,450.5 190.833,450.5 190.5,450.5C 184.737,447.606 178.404,446.273 171.5,446.5C 170.5,445.833 169.5,445.167 168.5,444.5C 169.038,442.883 169.371,441.216 169.5,439.5C 172.518,439.335 175.518,439.502 178.5,440C 180.73,441.885 183.23,443.385 186,444.5C 200.183,445.668 214.35,445.668 228.5,444.5 Z"/></g>
</svg>
